<svg width="318" height="123" viewBox="0 0 318 123" fill="none" xmlns="http://www.w3.org/2000/svg">
<g clip-path="url(#clip0)">
<rect width="318" height="123" rx="8" fill="#EBF2FF"/>
<path d="M-0.875 0H318V139H-0.875V0Z" fill="#003277"/>
<mask id="mask0" mask-type="alpha" maskUnits="userSpaceOnUse" x="0" y="0" width="318" height="139">
<path d="M0 0H318V139H0V0Z" fill="#003277"/>
</mask>
<g mask="url(#mask0)">
<rect opacity="0.3" width="76.866" height="250.851" transform="matrix(0.930396 -0.366556 0.645905 0.763418 -65.4554 -65.4697)" fill="url(#paint0_linear)"/>
<rect opacity="0.3" width="76.866" height="219.203" transform="matrix(-0.930396 0.366556 -0.645905 -0.763417 399.1 195.344)" fill="url(#paint1_linear)"/>
</g>
<circle opacity="0.72" cx="57.5827" cy="16.6741" r="1.05" transform="rotate(-18 57.5827 16.6741)" fill="#07D571"/>
<circle opacity="0.71" cx="173.545" cy="3.22792" r="1.06" transform="rotate(-76 173.545 3.22792)" fill="#07D571"/>
<circle opacity="0.95" cx="82.8399" cy="22.1667" r="1.05" transform="rotate(22 82.8399 22.1667)" fill="#07D571"/>
<circle opacity="0.81" cx="148.08" cy="36.9312" r="0.81" transform="rotate(54 148.08 36.9312)" fill="#07D571"/>
<circle opacity="0.84" cx="1.30161" cy="57.801" r="0.85" transform="rotate(43 1.30161 57.801)" fill="#FF705E"/>
<circle opacity="0.96" cx="142.246" cy="54.0751" r="0.79" transform="rotate(-73 142.246 54.0751)" fill="#07D571"/>
<circle opacity="0.91" cx="185.714" cy="66.4737" r="1.2" transform="rotate(-14 185.714 66.4737)" fill="#FFD175"/>
<circle opacity="0.82" cx="134.163" cy="79.4228" r="1.06" transform="rotate(92 134.163 79.4228)" fill="#FFC042"/>
<circle opacity="0.78" cx="195.421" cy="91.6567" r="0.62" transform="rotate(118 195.421 91.6567)" fill="#07D571"/>
<circle cx="12.8635" cy="109.006" r="1.14" transform="rotate(105 12.8635 109.006)" fill="#EE6F44"/>
<circle opacity="0.93" cx="131.191" cy="123.418" r="0.86" transform="rotate(-85 131.191 123.418)" fill="#07D571"/>
<circle opacity="0.91" cx="192.581" cy="105.852" r="1.19" transform="rotate(34 192.581 105.852)" fill="#07D571"/>
<path d="M25.092 56H26.868V52.16H30.228V56H31.992V47.108H30.228V50.612H26.868V47.108H25.092V56ZM35.686 56.168C36.454 56.168 37.126 55.784 37.714 55.28H37.762L37.882 56H39.322V52.076C39.322 50.132 38.446 49.112 36.742 49.112C35.686 49.112 34.726 49.508 33.934 50L34.57 51.164C35.194 50.804 35.794 50.528 36.418 50.528C37.246 50.528 37.534 51.032 37.57 51.692C34.858 51.98 33.694 52.736 33.694 54.176C33.694 55.316 34.486 56.168 35.686 56.168ZM36.262 54.788C35.746 54.788 35.374 54.56 35.374 54.032C35.374 53.432 35.926 52.976 37.57 52.772V54.128C37.138 54.548 36.766 54.788 36.262 54.788ZM42.6319 56H44.6719L46.9159 49.28H45.2239L44.2399 52.628C44.0599 53.288 43.8799 53.984 43.6999 54.668H43.6399C43.4599 53.984 43.2799 53.288 43.0999 52.628L42.1159 49.28H40.3399L42.6319 56ZM48.0339 56H49.7979V49.28H48.0339V56ZM48.9219 48.2C49.5219 48.2 49.9419 47.816 49.9419 47.228C49.9419 46.652 49.5219 46.268 48.9219 46.268C48.3099 46.268 47.8899 46.652 47.8899 47.228C47.8899 47.816 48.3099 48.2 48.9219 48.2ZM51.6785 56H53.4425V51.38C53.9345 50.888 54.2825 50.624 54.8345 50.624C55.4945 50.624 55.7825 50.984 55.7825 52.028V56H57.5465V51.812C57.5465 50.12 56.9225 49.112 55.4705 49.112C54.5585 49.112 53.8745 49.592 53.2865 50.168H53.2505L53.1185 49.28H51.6785V56ZM61.73 58.916C63.974 58.916 65.39 57.884 65.39 56.528C65.39 55.352 64.502 54.848 62.882 54.848H61.742C60.95 54.848 60.686 54.656 60.686 54.296C60.686 54.02 60.794 53.876 60.974 53.72C61.262 53.816 61.574 53.876 61.838 53.876C63.278 53.876 64.43 53.108 64.43 51.596C64.43 51.176 64.298 50.804 64.13 50.576H65.27V49.28H62.846C62.57 49.184 62.21 49.112 61.838 49.112C60.41 49.112 59.126 49.964 59.126 51.536C59.126 52.328 59.558 52.964 60.026 53.3V53.348C59.618 53.636 59.27 54.104 59.27 54.608C59.27 55.16 59.534 55.508 59.882 55.736V55.796C59.27 56.144 58.922 56.624 58.922 57.188C58.922 58.376 60.146 58.916 61.73 58.916ZM61.838 52.784C61.25 52.784 60.782 52.34 60.782 51.536C60.782 50.756 61.238 50.312 61.838 50.312C62.438 50.312 62.894 50.756 62.894 51.536C62.894 52.34 62.426 52.784 61.838 52.784ZM61.994 57.8C61.022 57.8 60.398 57.476 60.398 56.912C60.398 56.636 60.53 56.372 60.83 56.132C61.07 56.192 61.358 56.228 61.766 56.228H62.582C63.302 56.228 63.698 56.348 63.698 56.828C63.698 57.356 63.002 57.8 61.994 57.8ZM70.9009 56.168C71.6689 56.168 72.3409 55.784 72.9289 55.28H72.9769L73.0969 56H74.5369V52.076C74.5369 50.132 73.6609 49.112 71.9569 49.112C70.9009 49.112 69.9409 49.508 69.1489 50L69.7849 51.164C70.4089 50.804 71.0089 50.528 71.6329 50.528C72.4609 50.528 72.7489 51.032 72.7849 51.692C70.0729 51.98 68.9089 52.736 68.9089 54.176C68.9089 55.316 69.7009 56.168 70.9009 56.168ZM71.4769 54.788C70.9609 54.788 70.5889 54.56 70.5889 54.032C70.5889 53.432 71.1409 52.976 72.7849 52.772V54.128C72.3529 54.548 71.9809 54.788 71.4769 54.788ZM76.3347 56H78.0987V51.38C78.5907 50.888 78.9387 50.624 79.4907 50.624C80.1507 50.624 80.4387 50.984 80.4387 52.028V56H82.2027V51.812C82.2027 50.12 81.5787 49.112 80.1267 49.112C79.2147 49.112 78.5307 49.592 77.9427 50.168H77.9067L77.7747 49.28H76.3347V56ZM84.6102 58.7C86.1102 58.7 86.8302 57.788 87.4182 56.204L89.8062 49.28H88.1142L87.1902 52.4C87.0342 53.024 86.8662 53.672 86.7102 54.296H86.6502C86.4582 53.648 86.2902 53 86.0862 52.4L85.0182 49.28H83.2422L85.8582 55.88L85.7382 56.276C85.5462 56.864 85.1622 57.296 84.4782 57.296C84.3222 57.296 84.1302 57.248 84.0102 57.212L83.6862 58.568C83.9502 58.652 84.2142 58.7 84.6102 58.7ZM133.548 56H135.564L136.248 53.072C136.392 52.448 136.488 51.824 136.62 51.116H136.68C136.812 51.824 136.92 52.436 137.064 53.072L137.772 56H139.848L141.504 49.28H139.872L139.14 52.592C139.02 53.252 138.924 53.888 138.804 54.56H138.744C138.6 53.888 138.48 53.252 138.324 52.592L137.484 49.28H135.924L135.108 52.592C134.94 53.24 134.82 53.888 134.688 54.56H134.64C134.52 53.888 134.436 53.252 134.304 52.592L133.572 49.28H131.808L133.548 56ZM142.792 56H144.556V49.28H142.792V56ZM143.68 48.2C144.28 48.2 144.7 47.816 144.7 47.228C144.7 46.652 144.28 46.268 143.68 46.268C143.068 46.268 142.648 46.652 142.648 47.228C142.648 47.816 143.068 48.2 143.68 48.2ZM148.896 56.168C149.484 56.168 149.952 56.036 150.312 55.916L150.024 54.632C149.844 54.704 149.58 54.776 149.364 54.776C148.764 54.776 148.452 54.416 148.452 53.648V50.672H150.108V49.28H148.452V47.468H146.988L146.784 49.28L145.74 49.364V50.672H146.688V53.648C146.688 55.148 147.3 56.168 148.896 56.168ZM151.475 56H153.239V51.38C153.731 50.888 154.079 50.624 154.631 50.624C155.291 50.624 155.579 50.984 155.579 52.028V56H157.343V51.812C157.343 50.12 156.719 49.112 155.267 49.112C154.355 49.112 153.695 49.592 153.155 50.096L153.239 48.836V46.424H151.475V56ZM25.536 76.7C27.036 76.7 27.756 75.788 28.344 74.204L30.732 67.28H29.04L28.116 70.4C27.96 71.024 27.792 71.672 27.636 72.296H27.576C27.384 71.648 27.216 71 27.012 70.4L25.944 67.28H24.168L26.784 73.88L26.664 74.276C26.472 74.864 26.088 75.296 25.404 75.296C25.248 75.296 25.056 75.248 24.936 75.212L24.612 76.568C24.876 76.652 25.14 76.7 25.536 76.7ZM34.5529 74.168C36.2329 74.168 37.7809 72.872 37.7809 70.64C37.7809 68.408 36.2329 67.112 34.5529 67.112C32.8729 67.112 31.3249 68.408 31.3249 70.64C31.3249 72.872 32.8729 74.168 34.5529 74.168ZM34.5529 72.728C33.6409 72.728 33.1249 71.912 33.1249 70.64C33.1249 69.38 33.6409 68.552 34.5529 68.552C35.4649 68.552 35.9809 69.38 35.9809 70.64C35.9809 71.912 35.4649 72.728 34.5529 72.728ZM41.2606 74.168C42.1726 74.168 42.8206 73.724 43.3966 73.04H43.4446L43.5766 74H45.0166V67.28H43.2526V71.816C42.7966 72.416 42.4366 72.656 41.8846 72.656C41.2366 72.656 40.9486 72.284 40.9486 71.252V67.28H39.1846V71.48C39.1846 73.16 39.8086 74.168 41.2606 74.168ZM46.8972 74H48.6612V69.992C49.0332 69.02 49.6692 68.672 50.1972 68.672C50.4732 68.672 50.6652 68.708 50.9052 68.78L51.2052 67.256C51.0012 67.172 50.7852 67.112 50.4132 67.112C49.7172 67.112 48.9972 67.592 48.5052 68.468H48.4692L48.3372 67.28H46.8972V74ZM57.6505 74.168C59.3305 74.168 60.8785 72.872 60.8785 70.64C60.8785 68.408 59.3305 67.112 57.6505 67.112C55.9705 67.112 54.4225 68.408 54.4225 70.64C54.4225 72.872 55.9705 74.168 57.6505 74.168ZM57.6505 72.728C56.7385 72.728 56.2225 71.912 56.2225 70.64C56.2225 69.38 56.7385 68.552 57.6505 68.552C58.5625 68.552 59.0785 69.38 59.0785 70.64C59.0785 71.912 58.5625 72.728 57.6505 72.728ZM62.3543 74H64.1183V69.992C64.4902 69.02 65.1263 68.672 65.6543 68.672C65.9303 68.672 66.1223 68.708 66.3623 68.78L66.6623 67.256C66.4583 67.172 66.2423 67.112 65.8703 67.112C65.1743 67.112 64.4543 67.592 63.9623 68.468H63.9263L63.7943 67.28H62.3543V74ZM69.8042 74.168C70.5002 74.168 71.1722 73.784 71.6642 73.304H71.7122L71.8442 74H73.2722V64.424H71.5202V66.788L71.5802 67.844C71.1002 67.4 70.6322 67.112 69.8762 67.112C68.4242 67.112 67.0562 68.456 67.0562 70.64C67.0562 72.848 68.1362 74.168 69.8042 74.168ZM70.2602 72.716C69.3722 72.716 68.8682 72.02 68.8682 70.628C68.8682 69.284 69.5042 68.564 70.2602 68.564C70.6802 68.564 71.1122 68.696 71.5202 69.068V72.02C71.1242 72.524 70.7282 72.716 70.2602 72.716ZM78.0908 74.168C78.9188 74.168 79.7708 73.88 80.4308 73.424L79.8308 72.344C79.3508 72.644 78.8708 72.812 78.3188 72.812C77.3228 72.812 76.6028 72.236 76.4588 71.132H80.5988C80.6468 70.976 80.6828 70.652 80.6828 70.316C80.6828 68.468 79.7228 67.112 77.8748 67.112C76.2788 67.112 74.7428 68.468 74.7428 70.64C74.7428 72.86 76.2068 74.168 78.0908 74.168ZM76.4348 69.956C76.5668 68.984 77.1908 68.48 77.8988 68.48C78.7628 68.48 79.1708 69.056 79.1708 69.956H76.4348ZM82.1355 74H83.8995V69.992C84.2715 69.02 84.9075 68.672 85.4355 68.672C85.7115 68.672 85.9035 68.708 86.1435 68.78L86.4435 67.256C86.2395 67.172 86.0235 67.112 85.6515 67.112C84.9555 67.112 84.2355 67.592 83.7435 68.468H83.7075L83.5755 67.28H82.1355V74ZM88.5381 70.976H90.0741C89.8941 69.284 91.9821 68.708 91.9821 67.004C91.9821 65.468 90.9261 64.724 89.4861 64.724C88.4421 64.724 87.5901 65.216 86.9661 65.924L87.9381 66.812C88.3221 66.416 88.7421 66.14 89.2701 66.14C89.8941 66.14 90.2901 66.524 90.2901 67.124C90.2901 68.264 88.2501 69.044 88.5381 70.976ZM89.3061 74.168C89.9421 74.168 90.4101 73.664 90.4101 73.016C90.4101 72.356 89.9421 71.864 89.3061 71.864C88.6821 71.864 88.2141 72.356 88.2141 73.016C88.2141 73.664 88.6821 74.168 89.3061 74.168Z" fill="white"/>
<path d="M93.6316 56H95.3956V49.28H93.6316V56ZM94.5196 48.2C95.1196 48.2 95.5396 47.816 95.5396 47.228C95.5396 46.652 95.1196 46.268 94.5196 46.268C93.9076 46.268 93.4876 46.652 93.4876 47.228C93.4876 47.816 93.9076 48.2 94.5196 48.2ZM99.1961 56.168C100.948 56.168 101.872 55.22 101.872 54.044C101.872 52.796 100.888 52.352 100 52.016C99.2921 51.752 98.6681 51.572 98.6681 51.08C98.6681 50.696 98.9561 50.432 99.5681 50.432C100.06 50.432 100.528 50.66 101.008 51.008L101.8 49.94C101.248 49.52 100.492 49.112 99.5201 49.112C97.9841 49.112 97.0121 49.964 97.0121 51.164C97.0121 52.292 97.9601 52.808 98.8121 53.132C99.5201 53.408 100.216 53.636 100.216 54.14C100.216 54.56 99.9161 54.848 99.2441 54.848C98.6201 54.848 98.0441 54.584 97.4441 54.116L96.6401 55.22C97.3121 55.772 98.2961 56.168 99.1961 56.168ZM105.138 56.168C106.89 56.168 107.814 55.22 107.814 54.044C107.814 52.796 106.83 52.352 105.942 52.016C105.234 51.752 104.61 51.572 104.61 51.08C104.61 50.696 104.898 50.432 105.51 50.432C106.002 50.432 106.47 50.66 106.95 51.008L107.742 49.94C107.19 49.52 106.434 49.112 105.462 49.112C103.926 49.112 102.954 49.964 102.954 51.164C102.954 52.292 103.902 52.808 104.754 53.132C105.462 53.408 106.158 53.636 106.158 54.14C106.158 54.56 105.858 54.848 105.186 54.848C104.562 54.848 103.986 54.584 103.386 54.116L102.582 55.22C103.254 55.772 104.238 56.168 105.138 56.168ZM111.163 56.168C112.075 56.168 112.723 55.724 113.299 55.04H113.347L113.479 56H114.919V49.28H113.155V53.816C112.699 54.416 112.339 54.656 111.787 54.656C111.139 54.656 110.851 54.284 110.851 53.252V49.28H109.087V53.48C109.087 55.16 109.711 56.168 111.163 56.168ZM119.728 56.168C120.556 56.168 121.408 55.88 122.068 55.424L121.468 54.344C120.988 54.644 120.508 54.812 119.956 54.812C118.96 54.812 118.24 54.236 118.096 53.132H122.236C122.284 52.976 122.32 52.652 122.32 52.316C122.32 50.468 121.36 49.112 119.512 49.112C117.916 49.112 116.38 50.468 116.38 52.64C116.38 54.86 117.844 56.168 119.728 56.168ZM118.072 51.956C118.204 50.984 118.828 50.48 119.536 50.48C120.4 50.48 120.808 51.056 120.808 51.956H118.072ZM125.692 56.168C127.444 56.168 128.368 55.22 128.368 54.044C128.368 52.796 127.384 52.352 126.496 52.016C125.788 51.752 125.164 51.572 125.164 51.08C125.164 50.696 125.452 50.432 126.064 50.432C126.556 50.432 127.024 50.66 127.504 51.008L128.296 49.94C127.744 49.52 126.988 49.112 126.016 49.112C124.48 49.112 123.508 49.964 123.508 51.164C123.508 52.292 124.456 52.808 125.308 53.132C126.016 53.408 126.712 53.636 126.712 54.14C126.712 54.56 126.412 54.848 125.74 54.848C125.116 54.848 124.54 54.584 123.94 54.116L123.136 55.22C123.808 55.772 124.792 56.168 125.692 56.168Z" fill="#F39677"/>
<rect x="203" y="45" width="91" height="31" rx="4" fill="#227EFF"/>
<path d="M226.542 65.13C227.492 65.13 228.212 64.75 228.792 64.08L228.282 63.5C227.812 64.01 227.282 64.32 226.582 64.32C225.182 64.32 224.302 63.16 224.302 61.31C224.302 59.48 225.222 58.34 226.612 58.34C227.242 58.34 227.732 58.63 228.112 59.04L228.612 58.44C228.192 57.97 227.492 57.53 226.602 57.53C224.742 57.53 223.352 58.97 223.352 61.34C223.352 63.72 224.722 65.13 226.542 65.13ZM232.279 65.13C233.609 65.13 234.799 64.09 234.799 62.29C234.799 60.48 233.609 59.43 232.279 59.43C230.949 59.43 229.759 60.48 229.759 62.29C229.759 64.09 230.949 65.13 232.279 65.13ZM232.279 64.37C231.339 64.37 230.709 63.54 230.709 62.29C230.709 61.04 231.339 60.19 232.279 60.19C233.219 60.19 233.859 61.04 233.859 62.29C233.859 63.54 233.219 64.37 232.279 64.37ZM236.333 65H237.243V61.06C237.793 60.51 238.173 60.23 238.733 60.23C239.453 60.23 239.763 60.66 239.763 61.68V65H240.673V61.56C240.673 60.17 240.153 59.43 239.013 59.43C238.273 59.43 237.713 59.84 237.193 60.35H237.163L237.083 59.57H236.333V65ZM244.256 65.13C244.586 65.13 244.946 65.03 245.256 64.93L245.076 64.25C244.896 64.32 244.646 64.39 244.456 64.39C243.826 64.39 243.616 64.01 243.616 63.34V60.31H245.086V59.57H243.616V58.04H242.856L242.746 59.57L241.896 59.62V60.31H242.706V63.32C242.706 64.4 243.096 65.13 244.256 65.13ZM247.422 65.13C248.092 65.13 248.702 64.78 249.222 64.35H249.252L249.332 65H250.082V61.66C250.082 60.32 249.522 59.43 248.202 59.43C247.332 59.43 246.562 59.82 246.062 60.14L246.422 60.77C246.852 60.48 247.422 60.19 248.052 60.19C248.942 60.19 249.172 60.86 249.172 61.56C246.862 61.82 245.832 62.41 245.832 63.59C245.832 64.57 246.512 65.13 247.422 65.13ZM247.682 64.4C247.142 64.4 246.722 64.15 246.722 63.53C246.722 62.83 247.342 62.38 249.172 62.16V63.68C248.642 64.15 248.212 64.4 247.682 64.4ZM254.056 65.13C254.706 65.13 255.326 64.88 255.816 64.44L255.416 63.83C255.076 64.14 254.636 64.37 254.136 64.37C253.136 64.37 252.456 63.54 252.456 62.29C252.456 61.04 253.176 60.19 254.166 60.19C254.596 60.19 254.926 60.39 255.246 60.67L255.716 60.07C255.326 59.73 254.836 59.43 254.126 59.43C252.736 59.43 251.506 60.48 251.506 62.29C251.506 64.09 252.616 65.13 254.056 65.13ZM258.707 65.13C259.037 65.13 259.397 65.03 259.707 64.93L259.527 64.25C259.347 64.32 259.097 64.39 258.907 64.39C258.277 64.39 258.067 64.01 258.067 63.34V60.31H259.537V59.57H258.067V58.04H257.307L257.197 59.57L256.347 59.62V60.31H257.157V63.32C257.157 64.4 257.547 65.13 258.707 65.13ZM265.883 65.13C267.383 65.13 268.523 64.33 268.523 61.97V57.66H267.633V62C267.633 63.77 266.863 64.32 265.883 64.32C264.933 64.32 264.183 63.77 264.183 62V57.66H263.253V61.97C263.253 64.33 264.393 65.13 265.883 65.13ZM271.891 65.13C273.171 65.13 273.871 64.4 273.871 63.52C273.871 62.49 273.001 62.17 272.211 61.87C271.601 61.64 271.041 61.45 271.041 60.93C271.041 60.51 271.361 60.15 272.051 60.15C272.531 60.15 272.911 60.35 273.281 60.63L273.721 60.04C273.301 59.71 272.711 59.43 272.041 59.43C270.861 59.43 270.161 60.11 270.161 60.97C270.161 61.89 270.991 62.26 271.751 62.54C272.351 62.77 272.991 63.01 272.991 63.57C272.991 64.04 272.641 64.42 271.921 64.42C271.271 64.42 270.781 64.16 270.311 63.78L269.861 64.38C270.381 64.81 271.121 65.13 271.891 65.13Z" fill="white"/>
</g>
<defs>
<linearGradient id="paint0_linear" x1="38.433" y1="9.94858e-08" x2="49.3231" y2="287.466" gradientUnits="userSpaceOnUse">
<stop stop-color="#0350BB"/>
<stop offset="1" stop-color="#0350BB" stop-opacity="0"/>
</linearGradient>
<linearGradient id="paint1_linear" x1="38.433" y1="8.69345e-08" x2="46.7514" y2="251.284" gradientUnits="userSpaceOnUse">
<stop stop-color="#0350BB"/>
<stop offset="1" stop-color="#0350BB" stop-opacity="0"/>
</linearGradient>
<clipPath id="clip0">
<rect width="318" height="123" rx="8" fill="white"/>
</clipPath>
</defs>
</svg>
